<svg xmlns="http://www.w3.org/2000/svg" width="1024" height="1024" viewBox="0 0 100 100">
  <!-- Generated by icons/make-icons.py — edit the art there, not here. -->
  <rect width="100" height="100" fill="#F1E6E4"/>
  <g transform="translate(0 4.8) translate(50 50) scale(0.92) translate(-50 -50)">
  <!-- leaf sprig on top -->
  <path d="M52 17 Q53 12 51 8" fill="none" stroke="#6B4A31" stroke-width="1.3" stroke-linecap="round"/>
  <path d="M51 8 Q45 4 40 7 Q44 12 51 8 Z" fill="#7E9C60"/>
  <path d="M51 8 Q55 2 61 4 Q59 10 51 8 Z" fill="#8FAC6E"/>

  <!-- log, end-on: bark rim + tree rings -->
  <circle cx="50" cy="43" r="27" fill="#8A5A3B" stroke="#6B4A31" stroke-width="1.6"/>
  <g stroke="#6B4A31" stroke-width="1.2" stroke-linecap="round" fill="none">
    <path d="M28.5 32 l3.4 1.9"/>
    <path d="M71.5 32 l-3.4 1.9"/>
    <path d="M24 47 l3.9 -0.4"/>
    <path d="M76 47 l-3.9 -0.4"/>
    <path d="M33 63.5 l2.6 -2.9"/>
    <path d="M67 63.5 l-2.6 -2.9"/>
  </g>
  <circle cx="50" cy="43" r="22.5" fill="#EBD5B6"/>
  <circle cx="50" cy="43" r="18" fill="none" stroke="#D9B98C" stroke-width="1.5"/>
  <circle cx="50" cy="43" r="13" fill="none" stroke="#D9B98C" stroke-width="1.3"/>

  <!-- glasses -->
  <g fill="#F7EEDF" stroke="#3A2A20" stroke-width="1.5">
    <circle cx="42.5" cy="41" r="6"/>
    <circle cx="57.5" cy="41" r="6"/>
  </g>
  <path d="M48.5 41 Q50 39.8 51.5 41" fill="none" stroke="#3A2A20" stroke-width="1.5" stroke-linecap="round"/>
  <path d="M36.5 40 L31 38.5" stroke="#3A2A20" stroke-width="1.3" stroke-linecap="round"/>
  <path d="M63.5 40 L69 38.5" stroke="#3A2A20" stroke-width="1.3" stroke-linecap="round"/>
  <circle cx="42.5" cy="42" r="2" fill="#3A2A20"/>
  <circle cx="57.5" cy="42" r="2" fill="#3A2A20"/>

  <!-- smile + blush -->
  <path d="M45.5 50 Q50 53.5 54.5 50" fill="none" stroke="#3A2A20" stroke-width="1.5" stroke-linecap="round"/>
  <ellipse cx="35.5" cy="49" rx="3" ry="1.8" fill="#E89A90" opacity="0.75"/>
  <ellipse cx="64.5" cy="49" rx="3" ry="1.8" fill="#E89A90" opacity="0.75"/>

  <!-- stub arms holding the book -->
  <g stroke="#6B4A31" stroke-width="4.6" stroke-linecap="round" fill="none">
    <path d="M30 58 L31.5 68"/>
    <path d="M70 58 L68.5 68"/>
  </g>

  <!-- open book: brick cover, then cream pages -->
  <path d="M50 73 C42 68.5 33 67.5 26 69.8 L26 84 C33 81.8 42 82.8 50 87.5
           C58 82.8 67 81.8 74 84 L74 69.8 C67 67.5 58 68.5 50 73 Z"
        fill="#B23A2E" stroke="#8E2B22" stroke-width="1"/>
  <path d="M50 72.5 C43 68.5 35.5 67.8 29 69.8 L29 81.5 C35.5 79.8 43 80.8 50 84.8 Z"
        fill="#FBF3E9" stroke="#3A2A20" stroke-width="0.9" stroke-linejoin="round"/>
  <path d="M50 72.5 C57 68.5 64.5 67.8 71 69.8 L71 81.5 C64.5 79.8 57 80.8 50 84.8 Z"
        fill="#FBF3E9" stroke="#3A2A20" stroke-width="0.9" stroke-linejoin="round"/>
  <g fill="none" stroke="#DACBB8" stroke-width="0.9" stroke-linecap="round">
    <path d="M33 73.4 C38 72.2 43.5 72.8 47 74.6"/>
    <path d="M33 76.6 C38 75.4 43.5 76.0 47 77.8"/>
    <path d="M53 74.6 C56.5 72.8 62 72.2 67 73.4"/>
    <path d="M53 77.8 C56.5 76.0 62 75.4 67 76.6"/>
  </g>
  </g>
</svg>
