<svg xmlns="http://www.w3.org/2000/svg" width="1024" height="1024" viewBox="0 0 100 100">
  <!-- Generated by icons/make-icons.py — edit the art there, not here. -->
  <rect x="4" y="4" width="92" height="92" rx="22" fill="#E8D6D3"/>
  <rect x="6" y="6" width="88" height="88" rx="20" fill="#F1E6E4"/>
  <g transform="translate(0 1.0) translate(50 50) scale(0.9) translate(-50 -50)">
  <circle cx="50" cy="41" r="30" fill="#8A5A3B" stroke="#6B4A31" stroke-width="2.5"/>
  <circle cx="50" cy="41" r="24" fill="#EBD5B6"/>
  <circle cx="50" cy="41" r="17" fill="none" stroke="#D9B98C" stroke-width="2.5"/>
  <g fill="#F7EEDF" stroke="#3A2A20" stroke-width="2.6">
    <circle cx="41" cy="39" r="7.5"/>
    <circle cx="59" cy="39" r="7.5"/>
  </g>
  <path d="M48.5 39 H51.5" stroke="#3A2A20" stroke-width="2.6" stroke-linecap="round"/>
  <circle cx="41" cy="40" r="2.6" fill="#3A2A20"/>
  <circle cx="59" cy="40" r="2.6" fill="#3A2A20"/>
  <path d="M50 76 C41 70.5 30 69.5 22 72.5 L22 88 C30 85 41 86 50 92
           C59 86 70 85 78 88 L78 72.5 C70 69.5 59 70.5 50 76 Z"
        fill="#B23A2E" stroke="#8E2B22" stroke-width="1.6"/>
  <path d="M50 77 C42 72.5 33 71.8 26 74 L26 84.5 C33 82.5 42 83.3 50 87.5 Z" fill="#FBF3E9"/>
  <path d="M50 77 C58 72.5 67 71.8 74 74 L74 84.5 C67 82.5 58 83.3 50 87.5 Z" fill="#FBF3E9"/>
  </g>
</svg>
